<svg width="50" height="24" viewBox="0 0 50 24" fill="none" xmlns="http://www.w3.org/2000/svg">
<path fill-rule="evenodd" clip-rule="evenodd" d="M45.8055 24C42.5353 24 40.6226 22.7492 40.6226 19.125V11.8121C40.6226 11.7675 40.6001 11.7282 40.5661 11.7052H39.0231V22.9893C39.0231 23.3278 38.7504 23.6023 38.414 23.6023H32.7623C32.4249 23.6023 32.1518 23.3262 32.1533 22.9867L32.2089 9.57162V7.18995C32.2089 6.97526 32.3829 6.80122 32.5976 6.80122H38.4076C38.4127 6.80116 38.4177 6.80116 38.4227 6.80122H40.5389C40.5877 6.7834 40.6226 6.73608 40.6226 6.68054V2.38004C40.6226 2.3242 40.6582 2.27489 40.7106 2.25788L46.9978 0.222996C47.0794 0.196575 47.1628 0.258295 47.1628 0.345156V6.68054C47.1628 6.75135 47.2196 6.8088 47.2895 6.8088H49.7511C49.821 6.8088 49.8776 6.86624 49.8776 6.93706V11.5556C49.8776 11.6264 49.821 11.6838 49.7511 11.6838H47.197C47.127 11.6838 47.0703 11.7413 47.0703 11.8121V17.4892C47.0703 18.3873 47.3788 18.8042 48.1809 18.8042C48.8211 18.8042 49.2605 18.6736 49.8162 18.3889C49.9004 18.3457 50.0005 18.4077 50.0001 18.5035L49.9764 23.3027C49.9761 23.3557 49.9449 23.4035 49.8959 23.422C49.0015 23.7586 47.2121 24 45.8055 24ZM0.0107422 2.48575V23.1567C0.0107422 23.3429 0.161676 23.494 0.347911 23.494H6.54584C6.73208 23.494 6.88301 23.3429 6.88301 23.1567V0.55431C6.88301 0.326893 6.66265 0.164619 6.4454 0.23233L0.24768 2.16367C0.106587 2.20763 0.0107422 2.33814 0.0107422 2.48575ZM8.76786 2.87687C8.76786 4.76274 10.2702 5.78569 12.5397 5.78569C14.7772 5.78569 16.2796 4.76274 16.2796 2.87687C16.2796 1.08694 14.7772 2.47955e-05 12.5397 2.47955e-05C10.2702 2.47955e-05 8.76786 1.08694 8.76786 2.87687ZM9.09024 22.8823L9.15164 8.16977C9.15303 7.86619 9.37766 7.6099 9.67846 7.56882L15.2687 6.80677C15.6344 6.75692 15.96 7.04124 15.96 7.41029V22.8848C15.96 23.2212 15.6874 23.4939 15.351 23.4939H9.69922C9.36183 23.4939 9.08874 23.2197 9.09024 22.8823ZM31.8301 2.98525C31.8301 4.87113 33.3324 5.89408 35.6019 5.89408C37.8394 5.89408 39.3418 4.87113 39.3418 2.98525C39.3418 1.19533 37.8394 0.108412 35.6019 0.108412C33.3324 0.108412 31.8301 1.19533 31.8301 2.98525ZM17.0451 19.1301V23.2565C17.0451 23.3875 17.1555 23.4939 17.2917 23.4939H30.7154C30.8515 23.4939 30.962 23.3875 30.962 23.2565V18.8406C30.962 18.7095 30.8515 18.6032 30.7154 18.6032H29.2017H29.2017C28.8265 18.6032 26.6368 18.6032 25.5944 18.62C25.3887 18.6233 25.2701 18.3974 25.394 18.2395L30.9121 11.2191C30.9444 11.1778 30.962 11.1275 30.962 11.0758V6.94981C30.962 6.81878 30.8515 6.71255 30.7154 6.71255H17.6903C17.5541 6.71255 17.4437 6.81878 17.4437 6.94981V11.3656C17.4437 11.4967 17.5541 11.603 17.6903 11.603H18.9383C19.2852 11.603 21.3681 11.603 22.3808 11.5864C22.5862 11.583 22.7054 11.8084 22.5819 11.9664L17.0946 18.9874C17.0625 19.0286 17.0451 19.0787 17.0451 19.1301Z" fill="#0A2F5B"/>
</svg>
