<svg width="17" height="16" viewBox="0 0 17 16" fill="none" xmlns="http://www.w3.org/2000/svg">
<path fill-rule="evenodd" clip-rule="evenodd" d="M2.08579 2.58579C2.46086 2.21071 2.96957 2 3.5 2H7.086C7.28309 2.00004 7.47834 2.03892 7.66039 2.11442C7.84235 2.18988 8.00766 2.30044 8.14689 2.43978L9.56022 3.85311C9.65361 3.94662 9.78142 3.99984 9.91429 4C9.91424 4 9.91434 4 9.91429 4H13.5C14.0304 4 14.5391 4.21071 14.9142 4.58579C15.2893 4.96086 15.5 5.46957 15.5 6V12C15.5 12.5304 15.2893 13.0391 14.9142 13.4142C14.5391 13.7893 14.0304 14 13.5 14H3.5C2.96957 14 2.46086 13.7893 2.08579 13.4142C1.71071 13.0391 1.5 12.5304 1.5 12V4C1.5 3.46957 1.71071 2.96086 2.08579 2.58579ZM3.5 3C3.23478 3 2.98043 3.10536 2.79289 3.29289C2.60536 3.48043 2.5 3.73478 2.5 4V12C2.5 12.2652 2.60536 12.5196 2.79289 12.7071C2.98043 12.8946 3.23478 13 3.5 13H13.5C13.7652 13 14.0196 12.8946 14.2071 12.7071C14.3946 12.5196 14.5 12.2652 14.5 12V6C14.5 5.73478 14.3946 5.48043 14.2071 5.29289C14.0196 5.10536 13.7652 5 13.5 5H9.914C9.51666 4.99965 9.13418 4.84164 8.85289 4.56L7.43978 3.14689C7.39335 3.1004 7.33801 3.06331 7.27732 3.03814C7.21667 3.01299 7.15166 3.00003 7.086 3C7.08596 3 7.08604 3 7.086 3H3.5ZM8.5 6.5C8.77614 6.5 9 6.72386 9 7V8.5H10.5C10.7761 8.5 11 8.72386 11 9C11 9.27614 10.7761 9.5 10.5 9.5H9V11C9 11.2761 8.77614 11.5 8.5 11.5C8.22386 11.5 8 11.2761 8 11V9.5H6.5C6.22386 9.5 6 9.27614 6 9C6 8.72386 6.22386 8.5 6.5 8.5H8V7C8 6.72386 8.22386 6.5 8.5 6.5Z" fill="white"/>
</svg>
