<svg width="16" height="16" viewBox="0 0 16 16" fill="none" xmlns="http://www.w3.org/2000/svg">
<path fill-rule="evenodd" clip-rule="evenodd" d="M3.11048 3.10999C4.14196 2.07851 5.54096 1.49902 6.9997 1.49902C8.45844 1.49902 9.85743 2.07851 10.8889 3.10999C11.9204 4.14148 12.4999 5.54047 12.4999 6.99921C12.4999 8.29034 12.0459 9.53467 11.2264 10.5188L14.3536 13.646C14.5488 13.8413 14.5488 14.1578 14.3536 14.3531C14.1583 14.5484 13.8417 14.5484 13.6465 14.3531L10.5193 11.2259C9.53515 12.0454 8.29083 12.4994 6.9997 12.4994C5.54096 12.4994 4.14196 11.9199 3.11048 10.8884C2.07899 9.85695 1.49951 8.45795 1.49951 6.99921C1.49951 5.54047 2.07899 4.14148 3.11048 3.10999ZM6.9997 2.49902C5.80618 2.49902 4.66154 2.97315 3.81759 3.8171C2.97364 4.66105 2.49951 5.80569 2.49951 6.99921C2.49951 8.19273 2.97364 9.33738 3.81759 10.1813C4.66154 11.0253 5.80618 11.4994 6.9997 11.4994C8.19322 11.4994 9.33786 11.0253 10.1818 10.1813C11.0258 9.33737 11.4999 8.19273 11.4999 6.99921C11.4999 5.80569 11.0258 4.66105 10.1818 3.8171C9.33786 2.97315 8.19322 2.49902 6.9997 2.49902Z" fill="#3478D7"/>
</svg>
