<svg width="24" height="24" viewBox="0 0 24 24" fill="none" xmlns="http://www.w3.org/2000/svg">
<path d="M13.0324 1.48634C13.0836 1.48722 13.1347 1.48804 13.1859 1.48881C13.4336 1.49265 13.6797 1.49977 13.9262 1.52528C13.9536 1.5281 13.9536 1.5281 13.9814 1.53098C14.7211 1.61547 15.3938 2.01778 15.8644 2.58646C16.3533 3.20716 16.5298 3.92409 16.5091 4.70284C16.5389 4.70223 16.5686 4.70162 16.5993 4.70099C16.744 4.70111 16.8862 4.71652 17.0298 4.73229C17.0594 4.73546 17.0889 4.73863 17.1193 4.7419C17.1997 4.75062 17.28 4.75947 17.3604 4.76844C17.4109 4.77408 17.4614 4.77968 17.5119 4.78528C18.0285 4.84277 18.5433 4.90958 19.0576 4.98465C19.0879 4.98905 19.1181 4.99345 19.1493 4.99799C19.3229 5.02336 19.4963 5.04963 19.6696 5.0769C19.7305 5.08646 19.7914 5.09588 19.8523 5.10519C19.9475 5.11974 20.0426 5.13503 20.1377 5.15037C20.1665 5.15473 20.1953 5.15908 20.225 5.16357C20.4434 5.19981 20.6656 5.26709 20.8243 5.43011C20.9589 5.61946 21.0383 5.79943 21.0182 6.03617C20.9767 6.26864 20.8908 6.42903 20.7061 6.57708C20.4884 6.72753 20.2751 6.74198 20.0146 6.70246C19.9938 6.69858 19.973 6.69471 19.9515 6.69071C19.9239 6.79281 19.9168 6.89492 19.909 7.00006C19.9073 7.02184 19.9056 7.04362 19.9039 7.06606C19.8982 7.13958 19.8927 7.2131 19.8871 7.28662C19.8831 7.33966 19.879 7.39269 19.8749 7.44573C19.8637 7.59189 19.8526 7.73806 19.8415 7.88423C19.8295 8.04173 19.8175 8.19922 19.8054 8.35671C19.7845 8.62983 19.7637 8.90295 19.7429 9.17607C19.7114 9.58972 19.6797 10.0034 19.648 10.417C19.6353 10.583 19.6226 10.7491 19.6099 10.9151C19.6085 10.9335 19.6071 10.952 19.6056 10.971C19.572 11.4103 19.5384 11.8496 19.5048 12.2889C19.5033 12.3081 19.5019 12.3274 19.5003 12.3472C19.4661 12.7953 19.4319 13.2434 19.3977 13.6915C19.3962 13.7107 19.3947 13.73 19.3932 13.7498C19.3858 13.8468 19.3784 13.9439 19.371 14.0409C19.3696 14.0601 19.3681 14.0793 19.3666 14.099C19.3636 14.1377 19.3607 14.1764 19.3577 14.2152C19.3089 14.8556 19.2599 15.496 19.2108 16.1364C19.2038 16.227 19.1969 16.3176 19.19 16.4082C19.1879 16.4349 19.1879 16.4349 19.1858 16.4622C19.1639 16.7484 19.1421 17.0345 19.1203 17.3207C19.0984 17.6088 19.0764 17.8969 19.0543 18.1849C19.0423 18.3408 19.0304 18.4967 19.0186 18.6526C19.0078 18.7956 18.9968 18.9386 18.9858 19.0816C18.9818 19.1331 18.9779 19.1845 18.9741 19.236C18.9092 20.1045 18.9092 20.1045 18.7849 20.4528C18.7776 20.4737 18.7704 20.4945 18.763 20.516C18.6099 20.9413 18.3698 21.2962 18.0606 21.624C18.0458 21.6405 18.0309 21.6569 18.0156 21.6738C17.5069 22.2151 16.7495 22.4756 16.0243 22.521C15.9117 22.5242 15.7992 22.5244 15.6867 22.5243C15.6535 22.5243 15.6204 22.5244 15.5872 22.5244C15.497 22.5246 15.4067 22.5246 15.3164 22.5245C15.2188 22.5245 15.1211 22.5247 15.0234 22.5248C14.8324 22.525 14.6413 22.5251 14.4503 22.5251C14.2948 22.5251 14.1394 22.5251 13.984 22.5252C13.5425 22.5254 13.1011 22.5255 12.6596 22.5255C12.6358 22.5255 12.6121 22.5255 12.5876 22.5255C12.5638 22.5255 12.54 22.5255 12.5155 22.5255C12.1302 22.5255 11.7449 22.5257 11.3595 22.5261C10.9631 22.5264 10.5667 22.5266 10.1703 22.5266C9.94806 22.5266 9.72581 22.5266 9.50357 22.5269C9.31431 22.5271 9.12505 22.5272 8.93579 22.527C8.8394 22.5269 8.74302 22.5269 8.64663 22.5271C7.69568 22.5291 7.69568 22.5291 7.30608 22.4195C7.28715 22.4143 7.26822 22.4091 7.24871 22.4038C6.49481 22.1875 5.85158 21.6835 5.46261 21.0038C5.17857 20.491 5.08792 19.9765 5.04387 19.3994C5.03978 19.3479 5.03568 19.2965 5.03155 19.245C5.02086 19.1109 5.01044 18.9768 5.00009 18.8427C4.99227 18.7417 4.98432 18.6408 4.97636 18.5398C4.95212 18.2325 4.92842 17.9251 4.90482 17.6177C4.89361 17.4718 4.88236 17.3259 4.87111 17.18C4.8505 16.9126 4.82992 16.6451 4.80937 16.3777C4.7904 16.131 4.77143 15.8844 4.75244 15.6377C4.74987 15.6043 4.7473 15.5709 4.74473 15.5376C4.74086 15.4872 4.73699 15.4369 4.73311 15.3866C4.69728 14.921 4.66145 14.4554 4.62566 13.9898C4.62432 13.9724 4.62298 13.9549 4.6216 13.937C4.61072 13.7955 4.59984 13.654 4.58897 13.5125C4.54635 12.9582 4.50369 12.4038 4.461 11.8495C4.41284 11.2242 4.36472 10.5989 4.31664 9.97364C4.31152 9.90707 4.3064 9.84051 4.30128 9.77394C4.29939 9.74937 4.29939 9.74937 4.29746 9.72429C4.27846 9.47712 4.25943 9.22996 4.24038 8.98279C4.21879 8.70251 4.19723 8.42223 4.17571 8.14194C4.16474 7.99899 4.15375 7.85604 4.14272 7.7131C4.13263 7.58241 4.12259 7.45172 4.11258 7.32102C4.10895 7.27365 4.1053 7.22627 4.10163 7.1789C4.09666 7.11473 4.09175 7.05055 4.08686 6.98638C4.08541 6.96782 4.08396 6.94925 4.08246 6.93013C4.07581 6.84203 4.07113 6.75483 4.07274 6.66647C4.05074 6.67447 4.02874 6.68247 4.00608 6.69071C3.78035 6.75352 3.55148 6.72778 3.34547 6.61799C3.14629 6.47991 3.04016 6.31789 2.9895 6.08285C2.95183 5.85353 3.02331 5.64151 3.15655 5.4553C3.3443 5.24177 3.61451 5.18502 3.88382 5.14412C3.91936 5.13851 3.91936 5.13851 3.95562 5.13279C4.03352 5.12057 4.11146 5.10865 4.18941 5.09677C4.21648 5.0926 4.24354 5.08842 4.27143 5.08412C5.09692 4.95677 5.9243 4.84421 6.75456 4.75284C6.78983 4.74891 6.78983 4.74891 6.82582 4.74491C6.89226 4.73757 6.95873 4.73044 7.02521 4.72338C7.04434 4.72127 7.06348 4.71916 7.08319 4.71698C7.21942 4.70294 7.35403 4.70065 7.49093 4.70284C7.49008 4.67115 7.48924 4.63946 7.48837 4.60681C7.47222 3.74581 7.74488 3.00489 8.33941 2.37556C8.35632 2.35709 8.37322 2.33863 8.39064 2.3196C8.94483 1.73502 9.73302 1.51836 10.5146 1.49686C10.6365 1.49388 10.7584 1.49147 10.8803 1.4892C10.9196 1.48844 10.9196 1.48844 10.9596 1.48767C11.6508 1.47449 12.3412 1.4743 13.0324 1.48634ZM11.0466 3.00634C10.935 3.00732 10.8234 3.00885 10.7118 3.01113C10.6775 3.01177 10.6433 3.01227 10.609 3.0126C10.161 3.01734 9.76817 3.11919 9.43714 3.43399C9.16843 3.7096 9.01501 4.03295 9.01725 4.41884C9.01739 4.44934 9.01752 4.47984 9.01767 4.51127C9.01784 4.53449 9.01802 4.5577 9.0182 4.58162C9.049 4.58028 9.07981 4.57894 9.11155 4.57756C9.23061 4.57239 9.34968 4.5673 9.46875 4.56224C9.51939 4.56008 9.57003 4.55789 9.62067 4.55568C10.3812 4.52255 11.1409 4.50393 11.9022 4.50432C11.9648 4.50435 12.0274 4.50434 12.09 4.50432C12.8353 4.50436 13.5788 4.52165 14.3235 4.55407C14.4325 4.55879 14.5416 4.56329 14.6507 4.56781C14.7611 4.57239 14.8714 4.577 14.9818 4.58162C14.9956 4.16431 14.9128 3.82832 14.6333 3.50587C14.2962 3.1539 13.9282 3.02826 13.444 3.01525C13.4106 3.01469 13.3773 3.01416 13.344 3.01363C13.3081 3.01284 13.2722 3.01203 13.2363 3.0112C12.8432 3.00278 12.45 3.00221 12.0568 3.00279C12 3.00284 11.9432 3.00279 11.8864 3.00271C11.6064 3.0023 11.3265 3.00398 11.0466 3.00634ZM9.60184 6.05596C9.52193 6.06073 9.442 6.06531 9.36208 6.06988C8.24472 6.13471 7.12925 6.23407 6.0182 6.3695C5.99775 6.37195 5.97729 6.37439 5.95622 6.37691C5.90021 6.38367 5.84424 6.39072 5.78827 6.39791C5.75747 6.40181 5.72666 6.40571 5.69493 6.40972C5.62156 6.41782 5.62156 6.41782 5.57577 6.47253C5.57611 6.54409 5.5796 6.61278 5.58551 6.68396C5.58715 6.70622 5.58879 6.72849 5.59048 6.75144C5.59611 6.82692 5.60211 6.90237 5.60811 6.97783C5.61224 7.03214 5.61634 7.08645 5.62043 7.14077C5.63177 7.29071 5.64344 7.44062 5.65516 7.59053C5.66644 7.7354 5.67747 7.88029 5.68851 8.02518C5.71251 8.34003 5.73682 8.65486 5.76124 8.96968C5.78263 9.24535 5.80392 9.52103 5.82511 9.79672C5.82721 9.82412 5.82721 9.82412 5.82936 9.85208C5.83506 9.92623 5.84076 10.0004 5.84646 10.0745C5.89998 10.7708 5.9538 11.4671 6.00776 12.1634C6.05568 12.7818 6.10335 13.4003 6.15079 14.0187C6.20408 14.7133 6.25752 15.4079 6.31122 16.1025C6.31694 16.1766 6.32267 16.2507 6.3284 16.3248C6.32981 16.343 6.33122 16.3613 6.33267 16.3801C6.35395 16.6554 6.37512 16.9307 6.39622 17.206C6.42024 17.5193 6.44443 17.8326 6.46885 18.1459C6.48131 18.3057 6.49368 18.4656 6.50585 18.6254C6.517 18.7719 6.52837 18.9183 6.53992 19.0647C6.54405 19.1176 6.5481 19.1705 6.55206 19.2234C6.59633 19.8132 6.69913 20.2698 7.15475 20.6762C7.59541 21.0268 8.12123 21.0081 8.65392 21.0061C8.75261 21.0058 8.8513 21.0061 8.94999 21.0063C9.14282 21.0066 9.33565 21.0065 9.52847 21.0061C9.75339 21.0057 9.97831 21.0058 10.2032 21.0059C10.6047 21.006 11.0062 21.0057 11.4077 21.0051C11.7966 21.0045 12.1855 21.0043 12.5744 21.0046C12.9988 21.0048 13.4231 21.0049 13.8475 21.0045C13.8928 21.0045 13.9381 21.0045 13.9834 21.0044C14.0168 21.0044 14.0168 21.0044 14.0509 21.0044C14.2074 21.0042 14.3639 21.0043 14.5205 21.0044C14.7113 21.0045 14.9022 21.0044 15.0931 21.0039C15.1904 21.0037 15.2876 21.0035 15.3849 21.0037C15.4741 21.0039 15.5634 21.0037 15.6526 21.0033C15.6997 21.0031 15.7468 21.0034 15.7939 21.0036C16.069 21.0016 16.3424 20.9634 16.5879 20.8331C16.6041 20.8248 16.6203 20.8164 16.6369 20.8078C16.9591 20.6339 17.2036 20.3412 17.3334 19.9998C17.417 19.72 17.432 19.4339 17.4535 19.1443C17.4577 19.0894 17.462 19.0345 17.4663 18.9796C17.4779 18.8295 17.4893 18.6792 17.5006 18.529C17.5116 18.3835 17.5228 18.238 17.5341 18.0925C17.557 17.795 17.5797 17.4975 17.6023 17.2C17.6247 16.9056 17.6472 16.6112 17.6697 16.3168C17.6712 16.2984 17.6726 16.2801 17.674 16.2612C17.6812 16.1682 17.6883 16.0751 17.6954 15.982C17.746 15.3232 17.7964 14.6645 17.8466 14.0057C17.8954 13.3658 17.9442 12.726 17.9932 12.0862C17.9955 12.0566 17.9955 12.0566 17.9978 12.0264C18.013 11.8282 18.0282 11.63 18.0434 11.4318C18.0743 11.0281 18.1052 10.6244 18.1361 10.2207C18.1375 10.2021 18.139 10.1836 18.1404 10.1644C18.2353 8.92574 18.3298 7.68702 18.4243 6.44829C18.3864 6.44052 18.3485 6.4328 18.3105 6.42511C18.2789 6.41865 18.2789 6.41865 18.2466 6.41206C18.1431 6.39248 18.0391 6.37986 17.9346 6.36751C17.8994 6.36327 17.8994 6.36327 17.8635 6.35893C17.7863 6.34969 17.7091 6.34063 17.6318 6.33162C17.6049 6.32847 17.578 6.32532 17.5503 6.32207C16.5503 6.20551 15.5473 6.11768 14.5419 6.06415C14.4746 6.06051 14.4073 6.05665 14.34 6.05274C12.7702 5.96311 11.1715 5.96208 9.60184 6.05596Z" fill="#DD0021"/>
<path d="M9.62426 8.31496C9.79503 8.41759 9.91044 8.54313 9.98789 8.72708C10.0386 8.96118 10.0467 9.20156 10.0553 9.44017C10.0567 9.47663 10.0582 9.5131 10.0596 9.54957C10.0636 9.6488 10.0673 9.74803 10.0711 9.84727C10.0751 9.95467 10.0794 10.0621 10.0836 10.1695C10.0918 10.3795 10.0999 10.5895 10.1079 10.7995C10.1143 10.9702 10.1209 11.141 10.1275 11.3117C10.1285 11.3361 10.1294 11.3604 10.1304 11.3855C10.1323 11.435 10.1342 11.4845 10.1361 11.534C10.154 11.9973 10.1717 12.4607 10.1894 12.924C10.2045 13.3212 10.2198 13.7183 10.2353 14.1155C10.2532 14.5773 10.2711 15.039 10.2887 15.5009C10.2906 15.5501 10.2925 15.5994 10.2944 15.6487C10.2953 15.673 10.2962 15.6972 10.2972 15.7222C10.3037 15.8926 10.3103 16.0631 10.317 16.2336C10.3251 16.4414 10.333 16.6492 10.3408 16.8571C10.3448 16.963 10.3489 17.069 10.3531 17.1749C10.3569 17.2721 10.3606 17.3692 10.3641 17.4664C10.3654 17.5014 10.3668 17.5363 10.3682 17.5713C10.397 18.2751 10.397 18.2751 10.1655 18.5438C9.9873 18.707 9.78392 18.7741 9.54528 18.7699C9.3039 18.7465 9.12789 18.6273 8.96971 18.4483C8.87237 18.3018 8.84634 18.1637 8.83793 17.9911C8.83708 17.9739 8.83622 17.9568 8.83534 17.9391C8.83245 17.8801 8.82973 17.8211 8.82702 17.7621C8.82601 17.7409 8.82501 17.7197 8.82397 17.6979C8.79028 16.9858 8.76391 16.2733 8.73636 15.5609C8.7316 15.4379 8.72683 15.3149 8.72205 15.1919C8.70875 14.8491 8.69546 14.5063 8.68224 14.1635C8.68141 14.1418 8.68057 14.12 8.67971 14.0977C8.67887 14.0759 8.67803 14.0541 8.67716 14.0317C8.67547 13.9877 8.67377 13.9436 8.67207 13.8995C8.6708 13.8668 8.6708 13.8668 8.66951 13.8333C8.65583 13.4785 8.64201 13.1237 8.62814 12.7689C8.61378 12.4017 8.59953 12.0345 8.5854 11.6672C8.5775 11.4622 8.56957 11.2572 8.5615 11.0522C8.55464 10.8779 8.54789 10.7037 8.54127 10.5294C8.53791 10.441 8.53451 10.3526 8.53096 10.2641C8.52212 10.0427 8.51463 9.82133 8.50911 9.59981C8.50867 9.5828 8.50824 9.56579 8.50779 9.54827C8.50515 9.44224 8.5032 9.33623 8.50207 9.23018C8.50165 9.19676 8.50106 9.16335 8.5003 9.12994C8.49458 8.86734 8.52556 8.64679 8.71024 8.44905C8.95916 8.22525 9.32044 8.15829 9.62426 8.31496Z" fill="#DD0021"/>
<path d="M15.1515 8.3392C15.3273 8.44874 15.4216 8.60755 15.4909 8.7998C15.5083 8.91856 15.506 9.03383 15.5018 9.15357C15.5011 9.18762 15.5005 9.22167 15.4999 9.25572C15.4983 9.34474 15.4956 9.43369 15.4927 9.52267C15.491 9.57399 15.4895 9.62532 15.4881 9.67664C15.482 9.90285 15.4736 10.1289 15.4646 10.3551C15.4607 10.4546 15.457 10.5542 15.4532 10.6537C15.4458 10.8475 15.4383 11.0412 15.4307 11.2349C15.4218 11.4612 15.4132 11.6875 15.4045 11.9138C15.389 12.3176 15.3733 12.7215 15.3576 13.1253C15.3424 13.5161 15.3273 13.9069 15.3122 14.2977C15.3113 14.3219 15.3104 14.346 15.3094 14.3709C15.3076 14.4195 15.3057 14.4682 15.3038 14.5168C15.3029 14.5408 15.302 14.5648 15.301 14.5895C15.2997 14.6254 15.2997 14.6254 15.2982 14.6621C15.2839 15.0364 15.2694 15.4107 15.2549 15.785C15.2497 15.92 15.2445 16.0551 15.2393 16.1902C15.231 16.4042 15.2227 16.6181 15.2144 16.8321C15.2106 16.9297 15.2068 17.0273 15.203 17.125C15.1996 17.2145 15.1961 17.3041 15.1926 17.3937C15.1907 17.4409 15.1889 17.4881 15.1872 17.5353C15.1811 17.6867 15.1741 17.838 15.1652 17.9892C15.1635 18.0183 15.1619 18.0473 15.1602 18.0773C15.1373 18.2896 15.0412 18.4511 14.8849 18.5937C14.7008 18.7361 14.5096 18.7849 14.2788 18.7634C14.0694 18.7281 13.9033 18.6329 13.774 18.4629C13.6387 18.2499 13.6168 18.0624 13.6278 17.8157C13.6287 17.7892 13.6297 17.7626 13.6307 17.7352C13.634 17.6465 13.6376 17.5579 13.6413 17.4692C13.6437 17.4053 13.6461 17.3415 13.6485 17.2776C13.6537 17.1408 13.659 17.004 13.6644 16.8672C13.6727 16.6564 13.6805 16.4457 13.6882 16.2349C13.7049 15.7785 13.7221 15.3222 13.7394 14.8659C13.741 14.8247 13.7425 14.7836 13.7441 14.7424C13.7587 14.3567 13.7733 13.9709 13.788 13.5852C13.7913 13.4974 13.7947 13.4096 13.798 13.3219C13.7989 13.3001 13.7997 13.2783 13.8005 13.2558C13.8141 12.8994 13.8275 12.543 13.8409 12.1866C13.8547 11.8175 13.8687 11.4484 13.8828 11.0793C13.8907 10.8733 13.8985 10.6673 13.9061 10.4613C13.9126 10.2869 13.9192 10.1125 13.926 9.93806C13.9294 9.84935 13.9328 9.76063 13.936 9.6719C13.9395 9.57553 13.9433 9.47917 13.9471 9.38281C13.9481 9.35518 13.949 9.32755 13.95 9.29908C13.9639 8.96347 13.9862 8.66157 14.2303 8.41193C14.509 8.20366 14.8411 8.1767 15.1515 8.3392Z" fill="#DD0021"/>
</svg>
