<svg width="32" height="32" viewBox="0 0 32 32" fill="none" xmlns="http://www.w3.org/2000/svg">
<path fill-rule="evenodd" clip-rule="evenodd" d="M16 5C13.0826 5 10.2847 6.15893 8.22183 8.22183C6.15893 10.2847 5 13.0826 5 16C5 17.4445 5.28452 18.8749 5.83732 20.2095C6.39013 21.5441 7.20038 22.7567 8.22183 23.7782C9.24327 24.7996 10.4559 25.6099 11.7905 26.1627C13.1251 26.7155 14.5555 27 16 27C17.4445 27 18.8749 26.7155 20.2095 26.1627C21.5441 25.6099 22.7567 24.7996 23.7782 23.7782C24.7996 22.7567 25.6099 21.5441 26.1627 20.2095C26.7155 18.8749 27 17.4445 27 16C27 13.0826 25.8411 10.2847 23.7782 8.22183C21.7153 6.15893 18.9174 5 16 5ZM6.80761 6.80761C9.24558 4.36964 12.5522 3 16 3C19.4478 3 22.7544 4.36964 25.1924 6.80761C27.6304 9.24558 29 12.5522 29 16C29 17.7072 28.6637 19.3977 28.0104 20.9749C27.3571 22.5521 26.3996 23.9852 25.1924 25.1924C23.9852 26.3996 22.5521 27.3571 20.9749 28.0104C19.3977 28.6637 17.7072 29 16 29C14.2928 29 12.6023 28.6637 11.0251 28.0104C9.44788 27.3571 8.01477 26.3996 6.80761 25.1924C5.60045 23.9852 4.64288 22.5521 3.98957 20.9749C3.33625 19.3977 3 17.7072 3 16C3 12.5522 4.36964 9.24558 6.80761 6.80761ZM12.2929 12.2929C12.6834 11.9024 13.3166 11.9024 13.7071 12.2929L16 14.5858L18.2929 12.2929C18.6834 11.9024 19.3166 11.9024 19.7071 12.2929C20.0976 12.6834 20.0976 13.3166 19.7071 13.7071L17.4142 16L19.7071 18.2929C20.0976 18.6834 20.0976 19.3166 19.7071 19.7071C19.3166 20.0976 18.6834 20.0976 18.2929 19.7071L16 17.4142L13.7071 19.7071C13.3166 20.0976 12.6834 20.0976 12.2929 19.7071C11.9024 19.3166 11.9024 18.6834 12.2929 18.2929L14.5858 16L12.2929 13.7071C11.9024 13.3166 11.9024 12.6834 12.2929 12.2929Z" fill="#3478D7"/>
</svg>
